<?xml version="1.0" encoding="UTF-8"?><svg id="Capa_1" xmlns="http://www.w3.org/2000/svg" viewBox="0 0 567.361 403.877"><path d="M392.8,327.626c-70.585,1.31-141.332-1.051-211.95.081-17.517-38.851-66.089-44.544-93.601-11.678-2.184,2.604-5.014,10.449-7.731,11.371-5.467,1.86-33.044.113-41.374.226-7.99-3.85-12.6-7.715-15.722-16.336l-.679-291.301c1.456-9.915,7.23-15.673,16.352-19.086,113.302-.663,227.299-1.925,340.455.631,7.828,2.426,11.872,9.963,14.169,17.21.226,37.492-.016,75.001.081,112.461.162,65.442-.129,130.981,0,196.422Z" fill="#d7d9de"/><path d="M38.141,327.628c8.327-.114,35.918,1.637,41.379-.226,2.717-.927,5.551-8.767,7.729-11.368,27.511-32.873,76.092-27.179,93.607,11.676,70.607-1.132,141.361,1.233,211.944-.082,2.881-.054,15.35.509,16.175-.209.512-.446,4.258-9.146,6.446-11.954,25.283-32.447,77.004-25.334,92.811,12.245,12.412.215,24.954-.567,37.344-.082,4.161.163,7.81-.638,11.933,1.03,15.397,6.231,11.852,29.808-4.4,31.738-6.129.728-39.93-1.248-41.499.109-13.2,58.299-93.407,57.43-107.365-.225h-219.315c-13.929,57.706-94.144,58.47-107.365.225-2.394-2.072-54.288.955-63.324-.109-12.06-1.421-18.636-15.659-10.907-25.973,7.698-10.273,23.092-6.635,34.809-6.795ZM152.833,349.453c0-12.115-9.821-21.936-21.936-21.936s-21.936,9.821-21.936,21.936,9.821,21.936,21.936,21.936,21.936-9.821,21.936-21.936ZM480.21,349.453c0-12.115-9.821-21.936-21.936-21.936s-21.936,9.821-21.936,21.936,9.821,21.936,21.936,21.936,21.936-9.821,21.936-21.936Z" fill="#1a203b"/><path d="M392.799,131.202c27.235.597,53.124-2.937,79.401,5.853,38.463,12.866,69.455,51.134,73.199,91.853,2.904,31.584-1.8,66.761.176,98.72-12.39-.485-24.932.297-37.344.082-15.807-37.578-67.528-44.691-92.811-12.245-2.188,2.808-5.933,11.508-6.446,11.954-.825.718-13.294.155-16.175.209-.123-65.452.164-130.975,0-196.426ZM446.68,163.94c-6.603-.776-14.387.563-21.143,0v87.3h87.3v-21.143c0-30.483-37.261-62.76-66.157-66.157Z" fill="#1a203b"/><circle cx="130.898" cy="349.453" r="21.936" fill="#f7fafa"/><circle cx="458.274" cy="349.453" r="21.936" fill="#f7fafa"/><path d="M446.68,163.94c28.896,3.397,66.157,35.674,66.157,66.157v21.143h-87.3v-87.3c6.756.563,14.54-.776,21.143,0Z" fill="#fefefe"/></svg>