<?xml version="1.0" encoding="UTF-8"?><svg id="Capa_1" xmlns="http://www.w3.org/2000/svg" viewBox="0 0 19.063 24.607"><path d="M7.647,3.402c-.164.075-.363.163-.517.254-1.681.993-3.153,2.584-4.015,4.343-2.702,5.519.159,12.042,5.912,13.952,2.124.705,3.891.69,6.058.137.08-.02.177-.02.263-.057.212.477.355.985.52,1.48.028.085.195.431.15.493-.045.063-.275.085-.341.104-.449.131-.921.262-1.387.337C7.44,25.552.918,20.831.089,13.867-.476,9.12,1.69,4.621,5.704,2.112c.384-.24.768-.464,1.179-.671.06-.014.109.055.134.102.122.229.201.588.297.837s.276.58.347.836c.019.068.028.125-.014.187Z" fill="#187a40"/><path d="M10.041,5.623c-.055.007-.093.049-.141.069-.597.248-1.031.386-1.593.748-4.31,2.77-4.436,9.291-.081,12.126,1.983,1.291,4.557,1.439,6.687.392.512-.252.989-.604,1.438-.953h.073s1.022,1.739,1.022,1.739c.034.106-.181.251-.272.317-.675.492-1.427.879-2.21,1.166-5.112,1.868-10.533-1.176-11.802-6.418-1.071-4.425,1.068-8.98,5.251-10.825.211-.093.587-.288.805-.328.046-.009.17-.014.196.023l.626,1.945Z" fill="#e6c321"/><path d="M7.297,8.494c.12.076.222.185.325.261.11.08.82.573.839.633.046.146-.081.179-.134.263-.238.371-.51.863-.638,1.271-.136.432-.283,1.229-.233,1.689.178,1.638,1.042,3.087,2.516,3.889,1.607.875,3.505.803,5.07-.147.113-.069.358-.281.446-.317.043-.018.085-.02.13-.014l.941,1.234c.012.018.016.038.014.059-.007.082-.324.255-.402.31-2.151,1.52-5.093,1.582-7.334.182-3.136-1.96-4.026-6.039-1.924-9.064.118-.169.153-.395.384-.248Z" fill="#1c2a58"/><path d="M7.975,3.184l-.69-1.878,1.829-.728.083.116.646,1.812c-.022.079-.409.17-.491.2-.202.075-.409.149-.615.222-.103.036-.711.292-.762.257Z" fill="#939599"/><path d="M18.118,23.285l-1.838.567-.629-1.825.007-.1c.389-.148.791-.263,1.185-.398.131-.045.262-.099.399-.143.08-.026.196-.125.292-.056.02.014.087.31.105.363.152.453.355.91.477,1.371.019.071.047.154.003.221Z" fill="#939599"/><path d="M10.701,2.614c-.026.022-.126.023-.171.039-.087.031-.293.143-.365.102-.067-.037-.128-.345-.16-.431-.242-.653-.563-1.366-.765-2.019-.055-.178.005-.124.068-.155.097-.048.109-.051.212-.085.106-.034.228-.132.322.007l.863,2.315c.022.056.045.185-.004.227Z" fill="#939599"/><path d="M18.118,20.732c.082-.007.116.116.145.188.299.736.493,1.546.795,2.285.003.046.016.114-.023.147-.019.015-.427.156-.459.159-.097.009-.116-.041-.145-.123-.234-.649-.434-1.318-.661-1.976-.038-.111-.225-.43-.115-.524.026-.022.418-.153.462-.156Z" fill="#939599"/></svg>